<?xml version="1.0" standalone="no"?>
<!DOCTYPE svg PUBLIC "-//W3C//DTD SVG 20010904//EN"
 "http://www.w3.org/TR/2001/REC-SVG-20010904/DTD/svg10.dtd">
<svg version="1.0" xmlns="http://www.w3.org/2000/svg"
 width="512.000000pt" height="1024.000000pt" viewBox="0 0 512.000000 1024.000000"
 preserveAspectRatio="xMidYMid meet">

<g transform="translate(0.000000,1024.000000) scale(0.100000,-0.100000)"
fill="#000000" stroke="none">
<path d="M0 5120 l0 -5120 2560 0 2560 0 0 5120 0 5120 -2560 0 -2560 0 0
-5120z m3030 3062 c214 -39 416 -109 647 -226 612 -307 1030 -864 1207 -1606
52 -215 69 -405 63 -670 -10 -419 -108 -765 -291 -1024 -12 -16 -67 -75 -123
-130 l-101 -101 -26 -140 c-15 -77 -47 -257 -71 -400 -74 -421 -146 -676 -255
-904 -91 -188 -240 -388 -377 -507 -37 -32 -75 -65 -83 -73 -27 -26 -193 -132
-255 -163 -134 -68 -306 -126 -460 -155 -127 -24 -473 -24 -603 0 -204 38
-439 135 -613 253 -104 70 -118 83 -250 214 -248 247 -404 561 -514 1036 -32
140 -145 784 -145 830 0 14 -25 45 -67 84 -37 34 -92 92 -121 129 -117 146
-224 435 -279 746 -24 140 -24 594 0 743 59 365 182 720 347 1002 123 210 379
496 570 637 310 227 685 383 1053 438 148 21 600 14 747 -13z m-2604 -3608
c39 -26 53 -63 89 -235 19 -87 50 -225 70 -305 19 -80 35 -165 35 -188 0 -146
-200 -190 -276 -60 -28 48 -111 362 -144 548 -20 112 -20 122 -5 161 27 73 85
108 163 100 23 -3 54 -12 68 -21z m4514 4 c95 -49 102 -94 50 -344 -66 -319
-114 -464 -162 -496 -71 -47 -148 -38 -203 23 -47 53 -46 80 14 330 27 112 57
242 66 289 27 135 51 180 110 206 43 19 75 17 125 -8z"/>
<path d="M2380 7875 c-354 -54 -793 -246 -1030 -451 -153 -132 -331 -342 -420
-494 -179 -306 -293 -719 -316 -1144 -11 -196 24 -432 97 -651 84 -252 204
-404 426 -538 177 -106 479 -214 707 -253 110 -18 173 -47 203 -93 40 -59 26
-148 -32 -201 -25 -23 -34 -25 -118 -24 -141 1 -407 68 -646 162 -58 23 -107
39 -109 37 -6 -6 64 -399 94 -523 100 -429 237 -708 454 -928 220 -223 470
-343 783 -375 608 -61 1144 282 1372 881 47 124 117 381 149 545 39 206 69
395 64 401 -3 3 -39 -8 -79 -24 -171 -68 -426 -138 -610 -168 -103 -16 -106
-16 -152 4 -57 25 -87 70 -87 129 0 53 11 81 45 115 30 31 59 40 285 93 757
179 1049 454 1147 1080 21 136 23 408 4 555 -21 163 -56 326 -100 461 -182
557 -505 942 -997 1191 -215 109 -440 181 -663 212 -123 18 -361 18 -471 1z
m-171 -336 c111 -26 236 -88 311 -155 34 -30 63 -54 66 -54 3 0 31 23 62 51
122 108 339 185 532 188 226 3 401 -48 581 -170 182 -123 341 -343 398 -549
43 -153 37 -348 -14 -501 l-22 -65 54 -55 c161 -160 243 -365 243 -606 0 -165
-19 -252 -84 -388 -113 -235 -278 -379 -513 -447 -68 -20 -99 -23 -243 -22
-91 1 -178 6 -195 11 -29 9 -31 7 -77 -57 -104 -148 -236 -239 -416 -287 -89
-24 -113 -27 -292 -27 -213 0 -324 17 -449 68 -136 55 -291 173 -356 272 -31
46 -40 54 -58 48 -43 -15 -222 -19 -292 -7 -271 44 -512 283 -597 590 -30 106
-32 364 -5 462 39 143 113 272 216 377 l60 61 -24 75 c-63 199 -49 446 36 635
135 302 433 527 759 574 78 11 220 1 319 -22z m726 -4289 c22 -11 48 -33 58
-49 23 -40 22 -117 -3 -158 -38 -63 -46 -64 -400 -61 l-319 3 -30 29 c-36 35
-55 86 -47 124 19 82 50 112 126 123 25 3 164 7 309 8 245 1 268 0 306 -19z"/>
<path d="M3089 7305 c-106 -20 -178 -49 -247 -99 -69 -51 -123 -114 -151 -177
-20 -42 -21 -64 -21 -591 l0 -548 230 0 231 0 50 47 c80 75 79 70 79 342 0
163 -4 242 -11 247 -6 3 -24 27 -40 52 -56 89 -32 226 51 292 46 36 131 62
182 54 68 -11 139 -62 170 -123 51 -97 25 -224 -58 -287 l-34 -26 0 -213 c0
-117 -5 -237 -10 -266 -26 -137 -123 -264 -252 -329 l-80 -40 -254 0 -254 0 0
-491 0 -490 48 6 c140 19 265 74 320 141 l30 36 -34 50 c-29 43 -34 59 -34
109 0 98 41 159 135 199 55 24 103 22 159 -6 50 -26 106 -85 116 -125 10 -37
11 -37 75 -44 36 -4 109 -5 162 -3 81 3 110 9 163 33 130 58 232 157 297 288
46 90 63 167 63 272 0 211 -85 379 -254 506 -116 88 -131 163 -51 259 20 24
43 69 55 107 96 310 -162 706 -520 802 -102 27 -218 33 -311 16z m651 -1666
c91 -41 132 -105 131 -204 0 -70 -11 -105 -47 -153 -55 -71 -192 -104 -270
-64 -176 91 -179 326 -6 417 59 31 130 32 192 4z"/>
<path d="M1863 7295 c-180 -41 -350 -162 -449 -321 -68 -109 -95 -192 -101
-309 -7 -128 7 -194 63 -300 65 -124 57 -177 -39 -238 -190 -123 -290 -356
-257 -597 39 -286 250 -499 496 -500 51 0 52 1 58 33 26 139 203 177 282 60
13 -20 23 -55 27 -94 4 -49 13 -72 43 -116 80 -116 237 -212 392 -238 l42 -7
0 255 0 255 -88 4 -88 4 -85 59 c-46 32 -140 102 -208 154 -67 53 -140 108
-160 122 l-36 27 -64 -16 c-52 -13 -72 -13 -108 -4 -130 35 -206 158 -173 281
13 49 75 121 124 145 126 59 277 -4 324 -136 19 -54 29 -63 339 -293 126 -92
147 -105 183 -105 l40 0 0 440 0 440 -143 0 -143 0 -120 94 -121 94 -54 -10
c-64 -12 -103 -2 -171 41 -125 79 -135 250 -21 351 74 65 160 77 248 36 75
-34 135 -115 135 -179 0 -25 42 -66 154 -150 l50 -38 90 3 91 3 3 284 2 284
-25 32 c-39 51 -119 105 -198 132 -90 31 -242 39 -334 18z"/>
</g>
</svg>
