<?xml version="1.0" standalone="no"?>
<!DOCTYPE svg PUBLIC "-//W3C//DTD SVG 20010904//EN"
 "http://www.w3.org/TR/2001/REC-SVG-20010904/DTD/svg10.dtd">
<svg version="1.0" xmlns="http://www.w3.org/2000/svg"
 width="512.000000pt" height="1024.000000pt" viewBox="0 0 512.000000 1024.000000"
 preserveAspectRatio="xMidYMid meet">

<g transform="translate(0.000000,1024.000000) scale(0.100000,-0.100000)"
fill="#000000" stroke="none">
<path d="M0 5120 l0 -5120 2560 0 2560 0 0 5120 0 5120 -2560 0 -2560 0 0
-5120z m1285 3265 c162 -43 305 -191 349 -361 23 -89 23 -751 1 -839 -61 -231
-254 -379 -483 -370 -182 7 -314 85 -406 239 -63 104 -68 153 -63 577 4 392 5
408 53 500 26 52 98 142 136 171 115 88 272 119 413 83z m2426 -5 c123 -37
230 -129 293 -249 54 -104 58 -143 54 -566 -3 -371 -4 -381 -26 -435 -30 -69
-101 -169 -149 -210 -139 -114 -366 -140 -532 -59 -123 60 -227 197 -256 336
-21 100 -21 732 0 822 41 174 180 320 346 365 79 21 195 20 270 -4z m701 -637
c196 -79 339 -250 368 -438 7 -48 10 -782 8 -2375 -3 -2138 -5 -2309 -20
-2360 -23 -73 -81 -188 -114 -225 -14 -16 -33 -39 -43 -50 -54 -67 -200 -151
-312 -180 -59 -16 -211 -17 -1849 -19 l-1785 -1 -78 22 c-149 43 -270 129
-362 258 -79 109 -95 171 -106 390 -6 113 -8 1068 -7 2370 4 2046 5 2184 21
2238 29 96 91 191 172 266 51 47 132 101 152 101 11 0 13 -106 13 -561 l0
-561 39 -39 39 -39 1903 0 c1892 0 1904 0 1937 20 59 36 62 56 62 393 0 358
-2 369 -88 456 -30 31 -58 69 -63 86 -5 16 -9 88 -9 158 l0 129 31 -7 c16 -4
58 -18 91 -32z m-1644 3 c55 -29 85 -72 89 -128 5 -65 -17 -113 -66 -145 -34
-23 -35 -23 -415 -23 -426 0 -427 0 -474 70 -20 29 -23 45 -20 93 5 66 26 101
78 128 32 18 64 19 408 19 302 0 378 -3 400 -14z"/>
<path d="M1083 8040 c-18 -10 -42 -38 -53 -60 -20 -39 -21 -53 -18 -390 l3
-350 37 -37 c33 -33 44 -37 98 -41 52 -4 66 -1 99 21 70 46 71 53 71 430 0
331 0 334 -23 368 -51 76 -144 102 -214 59z"/>
<path d="M3505 8051 c-32 -14 -66 -51 -81 -87 -20 -48 -20 -670 0 -718 20 -49
69 -79 135 -84 62 -4 105 17 145 71 20 28 21 39 21 377 0 336 -1 349 -21 376
-35 48 -70 67 -126 71 -29 1 -62 -1 -73 -6z"/>
<path d="M2433 6236 l-28 -24 -3 -408 c-2 -301 0 -416 9 -437 23 -56 36 -57
525 -57 l446 0 34 34 34 34 0 401 c0 428 -2 445 -49 471 -13 6 -183 10 -480
10 l-460 0 -28 -24z m645 -282 c21 -14 22 -22 22 -161 0 -192 9 -183 -169
-183 -190 0 -181 -9 -181 180 0 188 -8 180 175 180 102 0 135 -3 153 -16z"/>
<path d="M518 6215 c-46 -26 -49 -58 -46 -467 3 -377 3 -377 26 -400 22 -23
27 -23 310 -28 211 -4 296 -2 320 7 61 23 63 38 60 463 l-3 380 -28 27 -27 28
-293 2 c-244 2 -296 0 -319 -12z m452 -334 c5 -11 10 -63 10 -115 0 -130 -6
-136 -136 -136 -137 0 -134 -3 -134 133 0 75 4 117 12 125 8 8 50 12 125 12
101 0 113 -2 123 -19z"/>
<path d="M1453 6210 c-23 -14 -34 -29 -39 -56 -4 -21 -4 -206 0 -413 l7 -376
25 -22 c25 -23 27 -23 344 -23 l318 0 31 26 31 26 0 400 0 400 -29 29 -29 29
-314 0 c-293 0 -315 -1 -345 -20z m465 -322 c15 -15 16 -215 2 -238 -7 -11
-35 -16 -118 -18 -142 -5 -142 -5 -142 129 0 142 -3 139 133 139 75 0 117 -4
125 -12z"/>
<path d="M3709 6201 l-29 -29 0 -399 c0 -438 0 -434 60 -450 17 -5 170 -6 341
-3 l311 5 22 26 c23 26 23 32 30 391 4 201 4 382 1 402 -5 22 -19 46 -37 61
l-30 25 -320 0 -320 0 -29 -29z m481 -320 c5 -11 10 -62 10 -113 0 -134 -3
-138 -133 -138 -145 0 -147 2 -147 135 0 137 -2 135 145 135 103 0 115 -2 125
-19z"/>
<path d="M508 5041 l-33 -29 0 -407 0 -407 28 -24 28 -24 290 0 c329 0 340 2
360 68 16 55 9 769 -9 799 -28 50 -50 53 -351 53 l-281 0 -32 -29z m450 -313
c17 -17 17 -229 0 -246 -8 -8 -49 -12 -119 -12 -84 0 -109 3 -120 16 -17 20
-16 218 1 239 16 19 219 22 238 3z"/>
<path d="M1457 5052 c-15 -9 -30 -26 -34 -37 -4 -11 -7 -199 -7 -418 l-1 -399
28 -24 28 -24 320 0 321 0 29 29 29 29 0 397 c0 253 -4 403 -10 416 -25 46
-50 49 -372 49 -268 -1 -306 -2 -331 -18z m461 -324 c15 -15 16 -211 2 -239
-10 -17 -22 -19 -125 -19 -103 0 -115 2 -125 19 -14 28 -13 224 2 239 17 17
229 17 246 0z"/>
<path d="M2426 5039 l-26 -31 0 -398 0 -398 26 -31 26 -31 470 0 470 0 29 29
29 29 0 402 0 402 -29 29 -29 29 -470 0 -470 0 -26 -31z m662 -271 c17 -17 17
-299 0 -316 -8 -8 -58 -12 -159 -12 -121 0 -150 3 -163 16 -13 12 -16 41 -16
150 0 75 5 144 10 155 10 17 23 19 163 19 106 0 157 -4 165 -12z"/>
<path d="M3728 5055 c-15 -9 -32 -24 -38 -35 -6 -12 -10 -165 -10 -418 l0
-400 31 -26 31 -26 309 0 c329 0 354 3 379 49 6 13 10 161 10 410 l0 391 -29
32 -29 33 -314 2 c-263 2 -317 0 -340 -12z m451 -328 c6 -8 13 -58 16 -112 8
-142 5 -145 -135 -145 -137 0 -140 3 -140 135 0 132 3 135 139 135 78 0 112
-4 120 -13z"/>
<path d="M1778 3900 c-314 -5 -318 -5 -340 -28 l-23 -23 2 -397 2 -397 31 -28
31 -28 320 3 321 3 24 28 24 28 0 385 c0 414 -2 429 -52 450 -14 5 -152 7
-340 4z m136 -336 c20 -20 23 -223 4 -242 -17 -17 -229 -17 -246 0 -8 8 -12
49 -12 119 0 140 -1 139 135 139 81 0 107 -3 119 -16z"/>
<path d="M2433 3886 l-28 -24 0 -407 0 -407 28 -24 28 -24 465 0 466 0 29 29
29 29 0 396 0 395 -24 28 -24 28 -470 3 -470 3 -29 -25z m649 -283 c16 -14 18
-33 18 -154 0 -112 -3 -141 -16 -153 -12 -13 -41 -16 -152 -16 -189 0 -182 -6
-182 163 0 184 -7 177 172 177 118 0 145 -3 160 -17z"/>
<path d="M3827 3901 c-92 -6 -100 -8 -123 -34 l-24 -28 0 -390 0 -391 29 -29
29 -29 312 0 c338 0 352 2 380 56 13 23 15 90 14 406 -2 419 -2 419 -67 436
-36 10 -397 12 -550 3z m357 -343 c18 -26 22 -180 6 -222 -9 -26 -10 -26 -121
-26 -148 0 -149 1 -149 129 0 139 2 141 140 141 101 0 110 -2 124 -22z"/>
<path d="M505 3876 c-13 -13 -27 -39 -30 -58 -4 -18 -5 -197 -3 -397 l3 -363
33 -29 32 -29 290 0 c285 0 289 0 315 23 14 12 30 37 35 55 5 18 9 191 10 382
1 372 -3 405 -48 429 -14 7 -124 11 -317 11 l-296 0 -24 -24z m456 -313 c22
-26 25 -197 5 -228 -16 -24 -21 -25 -124 -25 -71 0 -112 4 -120 12 -17 17 -17
229 0 246 8 8 49 12 119 12 87 0 109 -3 120 -17z"/>
<path d="M525 2698 c-84 -46 -48 -151 76 -218 l64 -35 1766 -3 1767 -2 68 36
c128 67 172 115 159 175 -14 64 139 59 -1965 59 -1367 -1 -1921 -4 -1935 -12z"/>
</g>
</svg>
